<svg version="1.1" id="Layer_1" xmlns="http://www.w3.org/2000/svg" xmlns:xlink="http://www.w3.org/1999/xlink" x="0px" y="0px"
	 width="100%" viewBox="0 0 348 145" enable-background="new 0 0 348 145" xml:space="preserve">
<path fill="#FEFEFE" opacity="1.000000" stroke="none" 
	d="
M223.000000,146.000000 
	C148.666672,146.000000 74.833351,146.000000 1.000020,146.000000 
	C1.000013,97.666679 1.000013,49.333363 1.000007,1.000033 
	C116.999969,1.000022 232.999939,1.000022 348.999939,1.000011 
	C348.999939,49.333298 348.999939,97.666595 348.999969,145.999939 
	C307.166656,146.000000 265.333344,146.000000 223.000000,146.000000 
M273.377838,23.917702 
	C273.289612,24.284019 273.201385,24.650337 273.014069,25.947210 
	C273.088226,50.936546 273.162415,75.925880 273.584534,101.658195 
	C277.171448,101.658195 280.758362,101.658195 284.758972,101.658195 
	C284.758972,76.002785 284.770294,50.815670 284.686432,25.628866 
	C284.684540,25.062590 283.601227,24.499914 282.127472,23.794428 
	C279.414459,23.842285 276.701416,23.890144 273.377838,23.917702 
M263.133301,51.977619 
	C260.741943,52.029045 258.350586,52.080471 255.354858,52.026398 
	C254.957367,52.341877 254.559875,52.657356 254.026703,53.645950 
	C253.931747,54.288597 253.836777,54.931244 253.731888,55.641083 
	C240.610092,47.491600 231.409271,48.384060 221.604996,58.653481 
	C212.464386,68.227737 211.551666,80.893333 219.018707,91.937279 
	C222.639160,97.292046 227.505569,100.782494 233.640915,102.488159 
	C241.008240,104.536308 247.655273,102.494484 254.043930,97.705414 
	C254.043930,100.330643 254.190323,102.155571 254.016922,103.949577 
	C253.459076,109.721527 250.676422,113.798798 245.101105,116.025017 
	C239.318130,118.334152 234.491409,117.246483 230.215408,112.854622 
	C224.887589,107.382439 224.315979,107.374954 217.084229,112.140587 
	C221.359726,122.880554 231.744919,128.559219 244.028366,126.873734 
	C256.244202,125.197510 263.670135,117.017555 264.978973,103.022415 
	C264.986176,87.363960 265.016754,71.705406 264.957977,56.047207 
	C264.953064,54.734989 264.347046,53.425030 263.133301,51.977619 
M92.056816,58.708588 
	C80.379211,58.776455 68.701614,58.844318 56.453453,58.919048 
	C56.357407,59.265507 56.261364,59.611965 56.026337,60.866539 
	C56.026337,63.651627 56.026337,66.436714 56.026337,69.848587 
	C65.187126,69.848587 73.902214,69.848587 82.683372,69.848587 
	C80.998352,82.076073 72.710381,91.327728 60.715237,92.230972 
	C47.904278,93.195641 36.790192,89.642845 29.507263,75.976357 
	C23.364307,64.449036 25.678326,50.342716 34.984280,41.015945 
	C40.004143,35.984852 46.140305,33.225182 53.080463,32.335129 
	C61.966629,31.195498 69.562805,34.673878 75.301109,38.854858 
	C78.635551,36.293793 81.503952,34.090679 84.499451,31.789948 
	C74.920792,23.536263 64.452927,20.385664 52.619152,20.967892 
	C29.643860,22.098286 10.822373,45.060394 14.590755,67.554634 
	C18.641403,91.733772 38.988018,106.572990 63.274246,103.060539 
	C80.466682,100.574043 94.095322,85.456253 94.108749,68.500160 
	C94.072060,68.333664 94.035362,68.167175 94.220222,67.162766 
	C94.146255,65.441521 94.072289,63.720272 94.117561,61.255417 
	C93.738144,60.462872 93.358727,59.670326 92.056816,58.708588 
M209.462006,74.869682 
	C209.388916,74.376442 209.313889,73.883469 209.243011,73.389900 
	C207.644852,62.261971 201.312119,54.841778 190.835754,51.404453 
	C180.219131,47.921108 170.654495,50.706688 163.182617,58.853302 
	C155.704407,67.006836 153.975128,76.679047 158.145142,87.072205 
	C162.887665,98.892273 174.977722,105.243492 188.131790,103.034683 
	C200.658615,100.931190 209.021378,90.254189 209.462006,74.869682 
M107.316460,56.797966 
	C105.767281,58.497211 104.016510,60.054310 102.701736,61.918846 
	C94.364990,73.741501 97.602081,90.660454 109.700317,98.961411 
	C121.736084,107.219482 139.136658,104.223907 146.746902,92.073341 
	C156.242966,76.911880 151.234146,63.578239 139.352112,54.661652 
	C130.368134,47.919842 116.794098,49.040001 107.316460,56.797966 
M327.707916,100.360565 
	C331.137573,97.680397 334.567230,95.000229 338.648987,91.810486 
	C336.867523,91.149231 336.329651,91.101463 336.018463,90.810905 
	C332.312531,87.350517 329.350189,86.060707 324.402405,90.182983 
	C317.320221,96.083488 305.790436,94.261703 303.655121,84.760834 
	C315.106110,79.905228 326.616272,75.024544 338.495911,69.987190 
	C337.344574,67.746567 336.489624,66.011589 335.572937,64.309875 
	C327.416962,49.169601 314.667358,47.157429 301.571106,54.868851 
	C290.009796,61.676445 286.570923,77.227226 292.881622,89.127823 
	C299.431915,101.480209 313.152710,106.155396 327.707916,100.360565 
z"/>
<path fill="#3376F1" opacity="1.000000" stroke="none" 
	d="
M93.983299,68.996010 
	C94.095322,85.456253 80.466682,100.574043 63.274246,103.060539 
	C38.988018,106.572990 18.641403,91.733772 14.590755,67.554634 
	C10.822373,45.060394 29.643860,22.098286 52.619152,20.967892 
	C64.452927,20.385664 74.920792,23.536263 84.499451,31.789948 
	C81.503952,34.090679 78.635551,36.293793 75.301109,38.854858 
	C69.562805,34.673878 61.966629,31.195498 53.080463,32.335129 
	C46.140305,33.225182 40.004143,35.984852 34.984280,41.015945 
	C25.678326,50.342716 23.364307,64.449036 29.507263,75.976357 
	C36.790192,89.642845 47.904278,93.195641 60.715237,92.230972 
	C72.710381,91.327728 80.998352,82.076073 82.683372,69.848587 
	C73.902214,69.848587 65.187126,69.848587 56.026337,69.848587 
	C56.026337,66.436714 56.026337,63.651627 56.294434,60.290043 
	C56.791042,59.489445 56.944870,59.222324 57.024014,58.912186 
	C68.701614,58.844318 80.379211,58.776455 92.517822,59.144302 
	C93.318665,60.386349 93.658493,61.192684 93.998322,61.999023 
	C94.072289,63.720272 94.146255,65.441521 93.941330,67.669518 
	C93.595467,68.282074 93.448654,68.449852 93.474716,68.483421 
	C93.621231,68.672150 93.809364,68.828568 93.983299,68.996010 
z"/>
<path fill="#3275F1" opacity="1.000000" stroke="none" 
	d="
M264.844757,103.943741 
	C263.670135,117.017555 256.244202,125.197510 244.028366,126.873734 
	C231.744919,128.559219 221.359726,122.880554 217.084229,112.140587 
	C224.315979,107.374954 224.887589,107.382439 230.215408,112.854622 
	C234.491409,117.246483 239.318130,118.334152 245.101105,116.025017 
	C250.676422,113.798798 253.459076,109.721527 254.016922,103.949577 
	C254.190323,102.155571 254.043930,100.330643 254.043930,97.705414 
	C247.655273,102.494484 241.008240,104.536308 233.640915,102.488159 
	C227.505569,100.782494 222.639160,97.292046 219.018707,91.937279 
	C211.551666,80.893333 212.464386,68.227737 221.604996,58.653481 
	C231.409271,48.384060 240.610092,47.491600 253.731888,55.641083 
	C253.836777,54.931244 253.931747,54.288597 254.360580,53.300846 
	C255.116043,52.681126 255.537643,52.406509 255.959244,52.131893 
	C258.350586,52.080471 260.741943,52.029045 263.563843,52.506721 
	C263.995453,68.265671 263.969330,83.495636 264.034821,98.725204 
	C264.042297,100.465843 264.562378,102.204277 264.844757,103.943741 
M251.390884,87.785919 
	C252.379898,85.881264 253.639587,84.067123 254.311935,82.056572 
	C257.530060,72.433250 251.319000,61.774899 242.090820,60.865517 
	C235.336166,60.199886 229.651688,63.976585 227.144653,70.795578 
	C224.534424,77.895271 226.954788,86.735001 232.499664,90.353401 
	C239.233459,94.747643 244.496521,94.173729 251.390884,87.785919 
z"/>
<path fill="#F6AD04" opacity="1.000000" stroke="none" 
	d="
M209.502853,75.283554 
	C209.021378,90.254189 200.658615,100.931190 188.131790,103.034683 
	C174.977722,105.243492 162.887665,98.892273 158.145142,87.072205 
	C153.975128,76.679047 155.704407,67.006836 163.182617,58.853302 
	C170.654495,50.706688 180.219131,47.921108 190.835754,51.404453 
	C201.312119,54.841778 207.644852,62.261971 209.243011,73.389900 
	C209.313889,73.883469 209.388916,74.376442 209.502853,75.283554 
M185.883499,92.902206 
	C187.263657,92.356697 188.725586,91.957680 190.010117,91.240822 
	C196.203156,87.784668 199.465195,79.836182 197.660248,72.825729 
	C195.884613,65.929092 190.127014,61.052467 183.536697,60.863220 
	C176.501556,60.661201 170.848343,64.717651 168.573990,71.599693 
	C164.799194,83.021858 172.685806,93.253265 185.883499,92.902206 
z"/>
<path fill="#E63327" opacity="1.000000" stroke="none" 
	d="
M107.559250,56.534306 
	C116.794098,49.040001 130.368134,47.919842 139.352112,54.661652 
	C151.234146,63.578239 156.242966,76.911880 146.746902,92.073341 
	C139.136658,104.223907 121.736084,107.219482 109.700317,98.961411 
	C97.602081,90.660454 94.364990,73.741501 102.701736,61.918846 
	C104.016510,60.054310 105.767281,58.497211 107.559250,56.534306 
M125.194649,93.122025 
	C127.523865,92.468933 130.077988,92.224274 132.141205,91.088135 
	C139.037216,87.290764 141.878662,78.302116 138.892426,70.708794 
	C136.016220,63.395229 128.516830,59.341782 121.231041,61.162743 
	C113.962776,62.979321 109.245804,70.387833 109.952057,78.877594 
	C110.677170,87.594246 115.792656,92.593506 125.194649,93.122025 
z"/>
<path fill="#E63327" opacity="1.000000" stroke="none" 
	d="
M327.383545,100.566986 
	C313.152710,106.155396 299.431915,101.480209 292.881622,89.127823 
	C286.570923,77.227226 290.009796,61.676445 301.571106,54.868851 
	C314.667358,47.157429 327.416962,49.169601 335.572937,64.309875 
	C336.489624,66.011589 337.344574,67.746567 338.495911,69.987190 
	C326.616272,75.024544 315.106110,79.905228 303.655121,84.760834 
	C305.790436,94.261703 317.320221,96.083488 324.402405,90.182983 
	C329.350189,86.060707 332.312531,87.350517 336.018463,90.810905 
	C336.329651,91.101463 336.867523,91.149231 338.648987,91.810486 
	C334.567230,95.000229 331.137573,97.680397 327.383545,100.566986 
M321.691681,62.373356 
	C316.480591,59.463760 311.363586,60.214211 306.691803,63.357601 
	C302.407288,66.240417 301.180908,70.750420 301.117950,76.242470 
	C309.387787,72.764969 317.089813,69.526222 325.235809,66.100792 
	C323.981232,64.753494 323.117798,63.826233 321.691681,62.373356 
z"/>
<path fill="#2B9D47" opacity="1.000000" stroke="none" 
	d="
M283.022339,23.935560 
	C283.601227,24.499914 284.684540,25.062590 284.686432,25.628866 
	C284.770294,50.815670 284.758972,76.002785 284.758972,101.658195 
	C280.758362,101.658195 277.171448,101.658195 273.664948,100.968674 
	C273.833496,98.461884 273.996582,96.644699 273.998413,94.827347 
	C274.021881,71.561234 274.022308,48.295082 274.466553,25.021717 
	C277.610443,24.654848 280.316376,24.295204 283.022339,23.935560 
z"/>
<path fill="#069533" opacity="1.000000" stroke="none" 
	d="
M274.028595,25.028944 
	C274.022308,48.295082 274.021881,71.561234 273.998413,94.827347 
	C273.996582,96.644699 273.833496,98.461884 273.490967,100.597183 
	C273.162415,75.925880 273.088226,50.936546 273.281708,25.465059 
	C273.549347,24.982908 273.986847,24.986906 273.996948,24.996994 
	C274.007080,25.007080 274.028595,25.028944 274.028595,25.028944 
z"/>
<path fill="#0C67F0" opacity="1.000000" stroke="none" 
	d="
M264.911865,103.483078 
	C264.562378,102.204277 264.042297,100.465843 264.034821,98.725204 
	C263.969330,83.495636 263.995453,68.265671 264.007385,52.574921 
	C264.347046,53.425030 264.953064,54.734989 264.957977,56.047207 
	C265.016754,71.705406 264.986176,87.363960 264.911865,103.483078 
z"/>
<path fill="#069533" opacity="1.000000" stroke="none" 
	d="
M282.574890,23.864994 
	C280.316376,24.295204 277.610443,24.654848 274.466553,25.021717 
	C274.028595,25.028944 274.007080,25.007080 273.993835,24.734978 
	C273.983185,24.287916 273.985809,24.112959 273.988403,23.938000 
	C276.701416,23.890144 279.414459,23.842285 282.574890,23.864994 
z"/>
<path fill="#1E6CF0" opacity="1.000000" stroke="none" 
	d="
M94.057938,61.627220 
	C93.658493,61.192684 93.318665,60.386349 92.979065,59.228897 
	C93.358727,59.670326 93.738144,60.462872 94.057938,61.627220 
z"/>
<path fill="#0C67F0" opacity="1.000000" stroke="none" 
	d="
M255.657043,52.079147 
	C255.537643,52.406509 255.116043,52.681126 254.428421,52.964287 
	C254.559875,52.657356 254.957367,52.341877 255.657043,52.079147 
z"/>
<path fill="#1E6CF0" opacity="1.000000" stroke="none" 
	d="
M94.046021,68.748085 
	C93.809364,68.828568 93.621231,68.672150 93.474716,68.483421 
	C93.448654,68.449852 93.595467,68.282074 93.830559,68.088470 
	C94.035362,68.167175 94.072060,68.333664 94.046021,68.748085 
z"/>
<path fill="#1E6CF0" opacity="1.000000" stroke="none" 
	d="
M56.738731,58.915619 
	C56.944870,59.222324 56.791042,59.489445 56.363922,59.835983 
	C56.261364,59.611965 56.357407,59.265507 56.738731,58.915619 
z"/>
<path fill="#2B9D47" opacity="1.000000" stroke="none" 
	d="
M273.683105,23.927851 
	C273.985809,24.112959 273.983185,24.287916 273.983704,24.724892 
	C273.986847,24.986906 273.549347,24.982908 273.331238,24.999783 
	C273.201385,24.650337 273.289612,24.284019 273.683105,23.927851 
z"/>
<path fill="#FCFDFF" opacity="1.000000" stroke="none" 
	d="
M251.145416,88.066422 
	C244.496521,94.173729 239.233459,94.747643 232.499664,90.353401 
	C226.954788,86.735001 224.534424,77.895271 227.144653,70.795578 
	C229.651688,63.976585 235.336166,60.199886 242.090820,60.865517 
	C251.319000,61.774899 257.530060,72.433250 254.311935,82.056572 
	C253.639587,84.067123 252.379898,85.881264 251.145416,88.066422 
z"/>
<path fill="#FFFEFB" opacity="1.000000" stroke="none" 
	d="
M185.467560,92.939285 
	C172.685806,93.253265 164.799194,83.021858 168.573990,71.599693 
	C170.848343,64.717651 176.501556,60.661201 183.536697,60.863220 
	C190.127014,61.052467 195.884613,65.929092 197.660248,72.825729 
	C199.465195,79.836182 196.203156,87.784668 190.010117,91.240822 
	C188.725586,91.957680 187.263657,92.356697 185.467560,92.939285 
z"/>
<path fill="#FEFCFB" opacity="1.000000" stroke="none" 
	d="
M124.828812,93.090439 
	C115.792656,92.593506 110.677170,87.594246 109.952057,78.877594 
	C109.245804,70.387833 113.962776,62.979321 121.231041,61.162743 
	C128.516830,59.341782 136.016220,63.395229 138.892426,70.708794 
	C141.878662,78.302116 139.037216,87.290764 132.141205,91.088135 
	C130.077988,92.224274 127.523865,92.468933 124.828812,93.090439 
z"/>
<path fill="#FEF9F9" opacity="1.000000" stroke="none" 
	d="
M321.973022,62.636162 
	C323.117798,63.826233 323.981232,64.753494 325.235809,66.100792 
	C317.089813,69.526222 309.387787,72.764969 301.117950,76.242470 
	C301.180908,70.750420 302.407288,66.240417 306.691803,63.357601 
	C311.363586,60.214211 316.480591,59.463760 321.973022,62.636162 
z"/>
</svg>